<?xml version="1.0" encoding="UTF-8" standalone="no"?>
<!DOCTYPE svg PUBLIC "-//W3C//DTD SVG 1.1//EN" "http://www.w3.org/Graphics/SVG/1.1/DTD/svg11.dtd">
<svg width="100%" height="100%" viewBox="0 0 2481 2481" version="1.1" xmlns="http://www.w3.org/2000/svg" xmlns:xlink="http://www.w3.org/1999/xlink" xml:space="preserve" xmlns:serif="http://www.serif.com/" style="fill-rule:evenodd;clip-rule:evenodd;stroke-linejoin:round;stroke-miterlimit:2;">
    <g transform="matrix(7.74874,0,0,7.74874,785.903,1616.31)">
        <g id="Ebene-2-Kopie" serif:id="Ebene 2 Kopie">
            <g id="brown">
                <path d="M0,-93.747L24.98,-110.331L38.478,-130.678L69.905,-163.717L76.25,-168.753L76.25,-159.486L91.057,-171.372L103.547,-185.071L106.368,-174.393L121.678,-179.228L117.851,-169.559L109.995,-141.8L111.203,-132.29L127.722,-123.627L151.695,-106.907C151.695,-106.907 168.618,-83.236 169.02,-82.783C169.423,-82.329 171.639,-75.681 171.639,-75.681L163.889,-75.681L169.222,-52.715L178.237,-33.779L183.122,-1.747L166.401,1.274L129.333,19.002L89.516,54.055L74.035,79.439L65.07,91.324L54.191,72.791L39.687,37.536L33.441,-1.949L30.218,-25.116L25.786,-41.232L16.52,-51.305L22.311,-72.521L9.065,-79.508L-1.41,-92.603" style="fill:rgb(206,183,135);fill-rule:nonzero;"/>
            </g>
        </g>
    </g>
</svg>
