<?xml version="1.0" encoding="UTF-8" standalone="no"?>
<!DOCTYPE svg PUBLIC "-//W3C//DTD SVG 1.1//EN" "http://www.w3.org/Graphics/SVG/1.1/DTD/svg11.dtd">
<svg width="100%" height="100%" viewBox="0 0 2481 2481" version="1.1" xmlns="http://www.w3.org/2000/svg" xmlns:xlink="http://www.w3.org/1999/xlink" xml:space="preserve" xmlns:serif="http://www.serif.com/" style="fill-rule:evenodd;clip-rule:evenodd;stroke-linejoin:round;stroke-miterlimit:2;">
    <g transform="matrix(7.74874,0,0,7.74874,1599.2,2480.32)">
        <g id="outline">
            <path d="M0,-320.093L-0.104,-320.093C-2.87,-320.051 -5.353,-318.385 -6.438,-315.841C-6.506,-315.684 -11.082,-305.069 -17.719,-295.114C-18.446,-296.46 -19.349,-297.794 -20.453,-299.093C-21.807,-300.685 -23.77,-301.56 -25.788,-301.56C-26.509,-301.56 -27.237,-301.448 -27.948,-301.218C-30.562,-300.369 -32.429,-298.074 -32.741,-295.361C-33.804,-292.168 -42.987,-282.591 -49.709,-275.58C-62.995,-261.725 -79.376,-244.643 -86.417,-228.253C-95.622,-222.984 -103.305,-218.003 -112.168,-211.568C-155.48,-201.45 -179.265,-181.047 -180.267,-180.174C-182.522,-178.209 -183.28,-175.028 -182.152,-172.257C-181.075,-169.61 -178.503,-167.896 -175.671,-167.896C-175.54,-167.896 -175.408,-167.899 -175.275,-167.907C-175.233,-167.909 -170.868,-168.148 -164.143,-168.148C-129.983,-168.148 -91.527,-162.056 -86.039,-144.956C-83.084,-135.751 -82.039,-125.56 -80.828,-113.76C-77.93,-85.52 -74.323,-50.374 -42.471,-3.09C-41.156,-1.138 -38.968,0 -36.667,0C-36.265,0 -35.86,-0.035 -35.456,-0.106C-32.733,-0.584 -30.546,-2.618 -29.875,-5.3C-23.107,-32.321 -5.346,-57.824 20.139,-77.113C41,-92.903 65.705,-103.234 83.078,-103.431C85.006,-103.453 86.84,-104.269 88.146,-105.687C89.453,-107.105 90.116,-108.999 89.981,-110.923C88.411,-133.21 81.401,-155.276 75.691,-170.079C76.268,-170.193 76.837,-170.381 77.387,-170.647C80.436,-172.123 81.99,-175.572 81.076,-178.835C81.034,-178.987 76.681,-194.236 64.634,-211.259C51.623,-229.646 34.864,-242.358 16.056,-248.136C15.565,-251.113 15.765,-258.909 19.088,-270.875C22.403,-282.814 27.355,-293.083 31.703,-297.035C33.843,-298.981 34.566,-302.041 33.523,-304.739C32.48,-307.436 29.886,-309.215 26.994,-309.215C23.581,-309.215 17.459,-307.654 10.65,-303.77C9.744,-307.652 8.302,-311.808 6.355,-316.027C5.21,-318.508 2.727,-320.093 0,-320.093M-0.001,-313.093C4.834,-302.617 5.64,-293.754 4.028,-290.128C13.295,-298.991 23.368,-302.215 26.994,-302.215C13.698,-290.128 3.402,-244.961 12.043,-242.022C12.066,-242.014 12.088,-242.006 12.111,-241.998C55.675,-229.885 72.63,-183.041 74.336,-176.947C71.112,-181.379 61.645,-184.968 61.645,-184.968C61.645,-184.968 80.38,-147.599 82.998,-110.43C47.543,-110.028 -20.549,-71.348 -36.666,-7.001C-80.985,-72.793 -68.898,-114.46 -79.374,-147.095C-87.456,-172.273 -140.376,-175.148 -164.143,-175.148C-171.182,-175.148 -175.668,-174.896 -175.668,-174.896C-175.668,-174.896 -152.199,-195.343 -109.203,-205.068C-98.674,-212.772 -90.293,-218.046 -80.836,-223.372C-80.835,-223.373 -80.833,-223.378 -80.833,-223.378C-70.51,-251.045 -26.593,-284.084 -25.787,-294.559C-18.937,-286.501 -23.772,-277.235 -23.772,-277.235C-10.477,-288.516 -0.001,-313.093 -0.001,-313.093" style="fill:white;fill-rule:nonzero;"/>
        </g>
    </g>
</svg>
