<?xml version="1.0" encoding="UTF-8" standalone="no"?>
<!DOCTYPE svg PUBLIC "-//W3C//DTD SVG 1.1//EN" "http://www.w3.org/Graphics/SVG/1.1/DTD/svg11.dtd">
<svg width="100%" height="100%" viewBox="0 0 2481 2481" version="1.1" xmlns="http://www.w3.org/2000/svg" xmlns:xlink="http://www.w3.org/1999/xlink" xml:space="preserve" xmlns:serif="http://www.serif.com/" style="fill-rule:evenodd;clip-rule:evenodd;stroke-linejoin:round;stroke-miterlimit:2;">
    <g transform="matrix(7.74874,0,0,7.74874,-907.889,-1066.17)">
        <g id="Ebene-2-Kopie" serif:id="Ebene 2 Kopie">
            <g id="red">
                <g>
                    <g transform="matrix(1,0,0,1,353.212,345.442)">
                        <path d="M0,-115.905C7.34,-109.949 19.673,-92.014 22.493,-85.97C20.378,-86.978 15.898,-86.023 15.898,-86.023C22.345,-72.526 34.693,-37.096 33.136,-2.23L41.65,0L48.499,-1.007L35.808,-59.429L28.757,-76.15L37.017,-74.941L26.138,-96.698L9.015,-113.822L0,-115.905Z" style="fill:rgb(186,12,47);fill-rule:nonzero;"/>
                    </g>
                    <g transform="matrix(1,0,0,1,214.46,292.711)">
                        <path d="M0,-37.32L-28.103,-29.161L-52.277,-16.923L-48.5,-11.181L-30.671,-11.181L-8.764,-9.066L21.757,0.755L26.44,-19.051L14.051,-25.081L2.417,-38.075L0,-37.32Z" style="fill:rgb(186,12,47);fill-rule:nonzero;"/>
                    </g>
                </g>
            </g>
        </g>
    </g>
</svg>
