<?xml version="1.0" encoding="UTF-8" standalone="no"?>
<!DOCTYPE svg PUBLIC "-//W3C//DTD SVG 1.1//EN" "http://www.w3.org/Graphics/SVG/1.1/DTD/svg11.dtd">
<svg width="100%" height="100%" viewBox="0 0 2481 2481" version="1.1" xmlns="http://www.w3.org/2000/svg" xmlns:xlink="http://www.w3.org/1999/xlink" xml:space="preserve" xmlns:serif="http://www.serif.com/" style="fill-rule:evenodd;clip-rule:evenodd;stroke-linejoin:round;stroke-miterlimit:2;">
    <g transform="matrix(7.74874,0,0,7.74874,-907.889,-1066.17)">
        <g id="Ebene-2-Kopie" serif:id="Ebene 2 Kopie">
            <g id="rest">
                <g>
                    <g transform="matrix(1,0,0,1,283.961,164.619)">
                        <path d="M0,266.038C-23.57,240.051 -29.916,181.579 -31.729,164.656C-33.313,149.873 -38.011,136.129 -45.922,128.962C-45.049,123.653 -43.276,114.383 -40.794,108.904C-45.629,106.335 -57.387,102.674 -64.578,89.396C-58.333,85.221 -45.974,76.965 -38.528,72.038C-26.441,44.539 1.36,28.372 8.461,15.832C8.782,18.457 8.31,21.8 5.439,28.222C14.807,21.121 30.671,12.508 36.413,1.025C37.546,2.461 38.415,8.278 37.207,12.772C41.965,8.504 45.441,6.087 51.371,3.896C46.385,8.429 41.399,33.057 41.55,51.338L49.31,53.737C75.303,63.625 96.441,90.185 101.533,102.709C101.533,102.709 97.907,101.5 93.676,102.256C103.043,124.919 109.491,147.785 112.865,176.895C83.402,178.406 19.792,216.48 0,266.038M-104.857,114.645C-104.857,114.645 -69.955,110.264 -49.709,110.868C-55.148,108.602 -94.885,104.975 -116.491,110.868C-105.468,103.803 -90.224,98.555 -68.467,91.907C-68.467,91.907 -68.338,91.864 -68.09,91.745C-65.958,95.213 -58.583,105.863 -45.78,110.74C-47.431,114.376 -48.897,122.807 -49.462,126.339C-49.494,126.32 -49.525,126.298 -49.558,126.279C-59.681,120.387 -91.107,113.89 -104.857,114.645M101.231,108.098C101.231,108.098 110.699,111.687 113.922,116.12C112.216,110.026 95.261,63.181 51.698,51.069C51.674,51.061 51.653,51.053 51.629,51.044C42.989,48.106 53.285,2.939 66.581,-9.148C62.955,-9.148 52.881,-5.925 43.615,2.939C45.226,-0.687 44.42,-9.551 39.585,-20.027C39.585,-20.027 29.11,4.551 15.814,15.832C15.814,15.832 20.649,6.565 13.8,-1.493C12.994,8.983 -30.923,42.021 -41.247,69.688C-41.247,69.688 -41.249,69.694 -41.25,69.695C-50.707,75.021 -59.087,80.294 -69.617,87.999C-112.613,97.723 -136.082,118.171 -136.082,118.171C-136.082,118.171 -50.263,113.336 -39.787,145.972C-29.312,178.607 -41.399,220.274 2.921,286.065C19.038,221.718 87.129,183.039 122.584,182.636C119.966,145.468 101.231,108.098 101.231,108.098" style="fill:rgb(4,30,66);fill-rule:nonzero;"/>
                    </g>
                    <g transform="matrix(1,0,0,1,237.68,277.15)">
                        <path d="M0,-12.591C4.035,-10.945 13.646,-12.089 19.287,-18.334C24.928,-24.579 28.353,-30.219 36.31,-31.428C47.179,-33.079 60.182,-18.887 81.637,-20.787C81.637,-20.787 60.887,-18.334 54.34,-11.887C52.426,-19.542 48.599,-28.003 39.533,-27.197C30.468,-26.392 35.829,-8.712 36.713,-3.489C34.094,-10.88 8.558,-8.939 8.835,3.588C9.361,10.895 13.566,17.311 14.967,19.202L7.905,20.488L6.293,10.339L6.495,-3.099" style="fill:rgb(206,183,135);fill-rule:nonzero;"/>
                    </g>
                    <g transform="matrix(1,0,0,1,230.335,269.292)">
                        <path d="M0,-14.656C0,-14.656 2.233,-2.406 15.49,-3.218L17.465,0L8.732,-0.806L0,-5.893L-5.904,-14.656" style="fill:rgb(206,183,135);fill-rule:nonzero;"/>
                    </g>
                    <g>
                        <g transform="matrix(0.894427,0.447214,0.447214,-0.894427,329.704,284.618)">
                            <path d="M-5.964,-2.739L3.045,-2.739L15.028,-23.551L-6.054,-11.118L-5.964,-2.739Z" style="fill:rgb(4,30,66);fill-rule:nonzero;"/>
                        </g>
                        <g transform="matrix(0.894427,0.447214,0.447214,-0.894427,315.199,312.217)">
                            <path d="M-5.964,-2.739L3.045,-2.739L15.029,-23.551L-6.054,-11.118L-5.964,-2.739Z" style="fill:rgb(4,30,66);fill-rule:nonzero;"/>
                        </g>
                        <g transform="matrix(0.894427,0.447214,0.447214,-0.894427,285.585,303.958)">
                            <path d="M-5.964,-2.739L3.045,-2.739L15.028,-23.551L-6.054,-11.118L-5.964,-2.739Z" style="fill:rgb(4,30,66);fill-rule:nonzero;"/>
                        </g>
                        <g transform="matrix(0,-1,-1,0,277.212,248.592)">
                            <path d="M-14.807,-14.807C-22.985,-14.807 -29.614,-8.178 -29.614,-0C-29.614,8.177 -22.985,14.807 -14.807,14.807C-6.63,14.807 -0,8.177 -0,-0C-0,-8.178 -6.63,-14.807 -14.807,-14.807" style="fill:rgb(4,30,66);fill-rule:nonzero;"/>
                        </g>
                        <g transform="matrix(0,-1,-1,0,281.846,252.436)">
                            <path d="M-3.927,-3.929C-6.098,-3.929 -7.856,-2.17 -7.856,-0.001C-7.856,2.169 -6.098,3.927 -3.927,3.927C-1.758,3.927 0.001,2.169 0.001,-0.001C0.001,-2.17 -1.758,-3.929 -3.927,-3.929" style="fill:white;fill-rule:nonzero;"/>
                        </g>
                    </g>
                </g>
            </g>
        </g>
    </g>
</svg>
