<?xml version="1.0" encoding="UTF-8" standalone="no"?>
<!DOCTYPE svg PUBLIC "-//W3C//DTD SVG 1.1//EN" "http://www.w3.org/Graphics/SVG/1.1/DTD/svg11.dtd">
<svg width="100%" height="100%" viewBox="0 0 2481 2481" version="1.1" xmlns="http://www.w3.org/2000/svg" xmlns:xlink="http://www.w3.org/1999/xlink" xml:space="preserve" xmlns:serif="http://www.serif.com/" style="fill-rule:evenodd;clip-rule:evenodd;stroke-linejoin:round;stroke-miterlimit:2;">
    <g transform="matrix(7.74874,0,0,7.74874,1722.51,1349.56)">
        <g id="Ebene-2-Kopie" serif:id="Ebene 2 Kopie">
            <g id="white">
                <path d="M0,-40.854C-1.611,-43.876 -6.85,-50.927 -6.85,-50.927C-6.85,-50.927 2.216,-52.941 11.281,-45.891C7.454,-56.567 -4.634,-63.165 -4.634,-63.165C-4.634,-63.165 8.26,-65.848 18.131,-60.597C6.8,-76.37 -9.099,-82.513 -25.955,-83.258C-24.839,-87.843 -20.957,-103.6 -19.412,-107.375C-24.449,-106.973 -31.902,-104.757 -33.515,-101.735C-34.812,-99.303 -38.326,-87.347 -39.648,-82.773C-40.724,-82.657 -41.8,-82.523 -42.875,-82.375C-41.364,-88.511 -38.219,-101.006 -36.866,-104.312C-41.902,-103.909 -49.356,-101.693 -50.968,-98.671C-52.283,-96.206 -55.876,-83.955 -57.155,-79.526C-58.576,-79.161 -59.988,-78.775 -61.389,-78.372C-59.889,-84.34 -56.784,-96.315 -54.997,-100.484C-60.638,-99.477 -66.077,-96.858 -68.897,-93.434C-71.071,-90.793 -75.997,-78.223 -78.14,-72.599C-94.159,-66.205 -106.884,-58.71 -111.807,-55.395C-111.329,-51.466 -106.166,-48.358 -106.166,-48.358C-106.166,-48.358 -100.123,-44.682 -91.662,-42.466C-92.87,-38.839 -93.676,-32.796 -92.064,-20.8C-72.318,-5.291 -65.069,52.255 -34.65,66.521C-38.679,61.686 -31.356,47.584 -36.463,32.475C-28.002,38.116 -6.85,39.728 5.843,38.922C13.296,29.252 10.274,3.667 6.044,-11.24C9.469,-10.032 12.894,-6.808 17.124,-1.974C13.296,-20.708 -5.842,-40.854 -5.842,-40.854C-5.842,-40.854 -2.491,-41.338 0,-40.854" style="fill:white;fill-rule:nonzero;"/>
            </g>
        </g>
    </g>
</svg>
